<?xml version="1.0" encoding="utf-8"?>
<!-- Generator: Adobe Illustrator 25.0.0, SVG Export Plug-In . SVG Version: 6.00 Build 0)  -->
<svg version="1.1" id="Layer_2_1_" xmlns="http://www.w3.org/2000/svg" xmlns:xlink="http://www.w3.org/1999/xlink" x="0px" y="0px"
	 viewBox="0 0 512 512" style="enable-background:new 0 0 512 512;" xml:space="preserve">
<style type="text/css">
	.st0{clip-path:url(#SVGID_1_);}
	.st1{clip-path:url(#SVGID_2_);}
	.st2{clip-path:url(#SVGID_3_);}
	.st3{fill-rule:evenodd;clip-rule:evenodd;fill:#EC1C24;}
	.st4{fill-rule:evenodd;clip-rule:evenodd;fill:#F48120;}
	.st5{fill-rule:evenodd;clip-rule:evenodd;fill:#EC1E27;}
</style>
<g>
	<g>
		<defs>
			<path id="SVGID_7_" d="M350.6,56.4c-1.3-2.9-20.3-15.5-23.4-15.2c-35.3,28-70.6,55.9-105.9,83.9C163,160.8,189.6,218,255,224.7
				c34.7,1,66.4-2.6,107.6,8.5C482.5,299.3,80.8,528.6,156,251.7c-75.7,73.4-14.2,154.9,72.7,154.4c86.9-0.5,151.3-43.1,185.2-121.3
				c12.1-51.3-36.9-68.2-73.5-77.1c-22.2-3.9-132.8-0.2-109.8-28.7c19.1-30.6,49.6-57.1,82.9-82.6c14.3-10.3,30.2-15.5,40.8-28.1
				C354.9,62.1,352.7,59.2,350.6,56.4"/>
		</defs>
		<clipPath id="SVGID_1_">
			<use xlink:href="#SVGID_7_"  style="overflow:visible;"/>
		</clipPath>
		<g class="st0">
			<g>
				<defs>
					<rect id="SVGID_9_" x="66.9" y="42.2" width="402.2" height="487.7"/>
				</defs>
				<clipPath id="SVGID_2_">
					<use xlink:href="#SVGID_9_"  style="overflow:visible;"/>
				</clipPath>
				<g class="st1">
					<g>
						<defs>
							<rect id="SVGID_11_" x="66.9" y="42.2" width="402.2" height="487.7"/>
						</defs>
						<clipPath id="SVGID_3_">
							<use xlink:href="#SVGID_11_"  style="overflow:visible;"/>
						</clipPath>
						<g class="st2">
							
								<image style="overflow:visible;enable-background:new    ;" width="1240" height="1505" xlink:href="9DA8292F.png"  transform="matrix(0.3243 0 0 0.3243 66.8341 42.0927)">
							</image>
						</g>
					</g>
				</g>
			</g>
		</g>
	</g>
	<path class="st3" d="M166.6,336.4l104.5-101.5c1.8-1.8,4.8-1.8,6.6,0.1c1.8,1.8,1.8,4.8-0.1,6.6L173.1,343.1
		c-1.8,1.8-4.8,1.7-6.6-0.1l0,0C164.7,341.2,164.7,338.2,166.6,336.4"/>
	<path class="st3" d="M44.8,448.4l82-76.3c1.9-1.8,4.8-1.7,6.6,0.1l0,0c1.8,1.8,1.7,4.8-0.1,6.6L54.6,458
		C47.7,464.9,41,451.8,44.8,448.4"/>
	<path class="st3" d="M317.6,185.2l84.8-79.8l8-3.1l-4.3,6.9l-81.9,82.6c-1.8,1.8-4.3,1.1-6.6-0.1l0,0
		C315.2,190.6,315.7,186.9,317.6,185.2"/>
	<path class="st4" d="M43.7,478.3c-4.2-3.3-7.6-7.7-8.8-14.7c-1.1,7-4.5,11.3-8.8,14.7c4.2,3.3,7.6,7.7,8.8,14.7
		C36.1,486,39.5,481.6,43.7,478.3"/>
	<path class="st4" d="M56.2,475.3c-2.5-2-4.5-4.5-5.2-8.6c-0.7,4.1-2.7,6.7-5.2,8.6c2.5,2,4.5,4.5,5.2,8.6
		C51.7,479.8,53.7,477.2,56.2,475.3"/>
	<path class="st4" d="M30.7,452.7c-2.5-2-4.5-4.5-5.2-8.6c-0.7,4.1-2.7,6.7-5.2,8.6c2.5,2,4.5,4.5,5.2,8.6
		C26.2,457.2,28.2,454.7,30.7,452.7"/>
	<path class="st4" d="M23.4,496.4c-1.2-1-2.2-2.3-2.6-4.3c-0.3,2.1-1.3,3.3-2.6,4.3c1.2,1,2.2,2.3,2.6,4.3
		C21.1,498.7,22.1,497.4,23.4,496.4"/>
	<path class="st4" d="M21.4,468.1c-1.2-1-2.2-2.3-2.6-4.3c-0.3,2.1-1.3,3.3-2.6,4.3c1.2,1,2.2,2.3,2.6,4.3
		C19.1,470.4,20.1,469.1,21.4,468.1"/>
	<path class="st4" d="M53.3,507.7c-1.2-1-2.2-2.3-2.6-4.3c-0.3,2.1-1.3,3.3-2.6,4.3c1.2,1,2.2,2.3,2.6,4.3
		C51,509.9,52,508.7,53.3,507.7"/>
	<path class="st4" d="M306.1,231.3c-2.7-2.1-4.8-4.9-5.6-9.4c-0.7,4.5-2.9,7.2-5.6,9.4c2.7,2.1,4.8,4.9,5.6,9.4
		C301.2,236.2,303.4,233.4,306.1,231.3"/>
	<path class="st4" d="M272.4,226.7c-1.2-1-2.2-2.3-2.6-4.3c-0.3,2.1-1.3,3.3-2.6,4.3c1.2,1,2.2,2.3,2.6,4.3
		C270.2,229,271.2,227.7,272.4,226.7"/>
	<path class="st4" d="M421.8,115.4c-2.7-2.1-4.8-4.9-5.6-9.4c-0.7,4.5-2.9,7.2-5.6,9.4c2.7,2.1,4.8,4.9,5.6,9.4
		C416.9,120.3,419.1,117.5,421.8,115.4"/>
	<path class="st4" d="M395.1,102.5c-1.6-1.3-3-3-3.4-5.7c-0.4,2.7-1.8,4.4-3.4,5.7c1.6,1.3,3,3,3.4,5.7
		C392.1,105.5,393.4,103.8,395.1,102.5"/>
	<path class="st4" d="M400.2,136c-1.6-1.3-3-3-3.4-5.7c-0.4,2.7-1.8,4.4-3.4,5.7c1.6,1.3,3,3,3.4,5.7
		C397.2,139,398.5,137.3,400.2,136"/>
	<path class="st5" d="M479.8,55.7l16-27.7l-32,0L447.7,0l-16.2,27.9l-32,0l16,27.7l-16,27.7l32,0l16.1,28l16.2-27.9l32,0L479.8,55.7
		L479.8,55.7z M487.5,32.5L477,50.9l-10.7-18.4L487.5,32.5L487.5,32.5z M474.3,55.6l-13.2,23.1l-26.9,0.1l-13.4-23L434,32.7
		l26.9-0.1L474.3,55.6z M447.4,9.3l10.8,18.6L436.7,28L447.4,9.3L447.4,9.3z M407.4,32.7l21.2-0.1l-10.6,18.4L407.4,32.7L407.4,32.7
		z M407.6,78.9l10.6-18.4l10.7,18.4L407.6,78.9L407.6,78.9z M447.7,102l-10.8-18.6l21.5-0.1L447.7,102L447.7,102z M477,60.2
		l10.7,18.4l-21.2,0.1L477,60.2L477,60.2z"/>
</g>
</svg>
